{"title":"Iron Man - Armored Adventures 1x11 - Juando Al Escondite [SatRip","uid":5587558,"size":289708213,"categoryP":"video","categoryS":"tv_shows","magnet":"?xt=urn:btih:3110ba7ce6e1f5fd6d18736a7a95f1d9806ec4f9&amp;dn=Iron+Man+-+Armored+Adventures+1x11+-+Juando+Al+Escondite+%5BSatRip&amp;tr=udp%3A%2F%2Ftracker.openbittorrent.com%3A80&amp;tr=udp%3A%2F%2Fopen.demonii.com%3A1337&amp;tr=udp%3A%2F%2Ftracker.coppersurfer.tk%3A6969&amp;tr=udp%3A%2F%2Fexodus.desync.com%3A6969","seeders":0,"leechers":0,"uploader":"fleqii","files":1,"time":1274751058,"description":"C:UsersJoelContactsIron Man - Armored Adventures 1x11 - Juando Al Escondite [SatRip + Latino + AC3].mkv\n   General\n      Complete name : C:UsersJoelContactsIron Man - Armored Adventures 1x11 - Juando Al Escondite [SatRip + Latino + AC3].mkv\n      Format : Matroska\n      File size : 276 MiB\n      Duration : 22mn 14s\n      Overall bit rate : 1 737 Kbps\n      Encoded date : UTC 2010-05-24 23:01:06\n      Writing application : VirtualDubMod 1.5.10.2 (build 2540/release)\n      Writing library : libebml-0.7.5 &amp; libmatroska-0.7.7\n   Video #1\n      ID : 1\n      Format : MPEG-4 Visual\n      Format profile : Simple@L1\n      Format settings, BVOP : No\n      Format settings, QPel : No\n      Format settings, GMC : No warppoints\n      Format settings, Matrix : Default (H.263)\n      Codec ID : DX50\n      Codec ID/Hint : DivX 5\n      Duration : 22mn 12s\n      Bit rate : 1 255 Kbps\n      Width : 720 pixels\n      Height : 480 pixels\n      Display aspect ratio : 1.510\n      Frame rate : 29.970 fps\n      Standard : NTSC\n      Resolution : 24 bits\n      Colorimetry : 4:2:0\n      Scan type : Progressive\n      Bits/(Pixel*Frame) : 0.121\n      Stream size : 199 MiB (72%)\n      Writing library : DigiArty AV Encoder Core\n   Audio #2\n      ID : 2\n      Format : AC-3\n      Format/Info : Audio Coding 3\n      Codec ID : A_AC3\n      Duration : 22mn 14s\n      Bit rate mode : Constant\n      Bit rate : 448 Kbps\n      Channel(s) : 2 channels\n      Channel positions : L R\n      Sampling rate : 48.0 KHz\n      Stream size : 71.2 MiB (26%)","torrent":{"xt":"urn:btih:3110ba7ce6e1f5fd6d18736a7a95f1d9806ec4f9","amp;dn":"Iron+Man+-+Armored+Adventures+1x11+-+Juando+Al+Escondite+%5BSatRip","amp;tr":["udp%3A%2F%2Ftracker.openbittorrent.com%3A80","udp%3A%2F%2Fopen.demonii.com%3A1337","udp%3A%2F%2Ftracker.coppersurfer.tk%3A6969","udp%3A%2F%2Fexodus.desync.com%3A6969"],"infoHash":"3110ba7ce6e1f5fd6d18736a7a95f1d9806ec4f9","infoHashBuffer":{"type":"Buffer","data":[49,16,186,124,230,225,245,253,109,24,115,106,122,149,241,217,128,110,196,249]},"announce":[],"urlList":[]}}